<?xml version="1.0" encoding="UTF-8" standalone="no"?>
<!-- Created with Inkscape (http://www.inkscape.org/) -->
<svg
   xmlns:svg="http://www.w3.org/2000/svg"
   xmlns="http://www.w3.org/2000/svg"
   version="1.0"
   width="16"
   height="16"
   id="svg3188">
  <defs
     id="defs3190" />
  <g
     id="layer1">
    <path
       d="M 12.1875,1.25 C 12.077729,1.2856075 11.987364,1.3646766 11.9375,1.46875 L 6.78125,11 L 3.375,8.28125 C 3.2841697,8.2139723 3.1701185,8.1860066 3.0584688,8.2036355 C 2.9468191,8.2212644 2.8469328,8.2830097 2.78125,8.375 C 2.4507085,8.7857476 2.1768045,9.1574454 1.8125,9.625 C 1.6855834,9.800674 1.7126163,10.04397 1.875,10.1875 C 1.9757659,10.271017 3.1771516,11.276857 4.5,12.375 C 5.1893641,12.947265 5.8795721,13.530149 6.40625,13.96875 C 6.6764039,14.193726 6.9195665,14.380242 7.0625,14.5 C 7.1407717,14.565581 7.1898921,14.595765 7.1875,14.59375 C 7.2809725,14.683191 7.4103497,14.724739 7.5384205,14.706443 C 7.6664912,14.688147 7.77906,14.612036 7.84375,14.5 C 7.8878323,14.421535 7.9492393,14.294622 8.09375,14.03125 C 8.2915152,13.670821 8.5366926,13.18833 8.84375,12.625 C 9.4623673,11.490081 10.286505,10.01785 11.09375,8.53125 C 11.901668,7.0434108 12.677975,5.5505548 13.28125,4.4375 C 13.580341,3.8856711 13.843034,3.441555 14.03125,3.09375 C 14.167914,2.8412079 14.222466,2.7655117 14.28125,2.65625 C 14.388523,2.457197 14.319568,2.2089582 14.125,2.09375 C 14.085304,2.0711525 14.00377,2.0375918 13.875,1.96875 C 13.700115,1.8752536 13.495657,1.7686287 13.28125,1.65625 C 13.06707,1.5439903 12.849364,1.4291256 12.6875,1.34375 C 12.513575,1.2520134 12.391761,1.2231114 12.5,1.28125 C 12.403752,1.2309546 12.291802,1.2197596 12.1875,1.25 z"
       transform="matrix(0.8730796,0,0,0.8903828,0.9872381,0.901862)"
       id="path3186"
       style="opacity:1;fill:#000000;fill-opacity:1;fill-rule:nonzero;stroke:none;stroke-width:1.00278986;stroke-linecap:round;stroke-linejoin:miter;marker:none;marker-start:none;marker-mid:none;marker-end:none;stroke-miterlimit:4;stroke-dasharray:none;stroke-dashoffset:0;stroke-opacity:1;visibility:visible;display:inline;overflow:visible" />
  </g>
</svg>
