<?xml version="1.0" encoding="UTF-8" standalone="no"?>
<!-- Created with Inkscape (http://www.inkscape.org/) -->
<svg
   xmlns:dc="http://purl.org/dc/elements/1.1/"
   xmlns:cc="http://creativecommons.org/ns#"
   xmlns:rdf="http://www.w3.org/1999/02/22-rdf-syntax-ns#"
   xmlns:svg="http://www.w3.org/2000/svg"
   xmlns="http://www.w3.org/2000/svg"
   xmlns:xlink="http://www.w3.org/1999/xlink"
   xmlns:sodipodi="http://sodipodi.sourceforge.net/DTD/sodipodi-0.dtd"
   xmlns:inkscape="http://www.inkscape.org/namespaces/inkscape"
   width="64px"
   height="64px"
   id="svg3456"
   sodipodi:version="0.32"
   inkscape:version="0.46"
   sodipodi:docname="battery_plugged.svg"
   inkscape:output_extension="org.inkscape.output.svg.inkscape">
  <defs
     id="defs3458">
    <linearGradient
       id="linearGradient3450">
      <stop
         id="stop3452"
         offset="0"
         style="stop-color:#ffffff;stop-opacity:1;" />
      <stop
         id="stop3454"
         offset="1"
         style="stop-color:#ffffff;stop-opacity:0;" />
    </linearGradient>
    <linearGradient
       inkscape:collect="always"
       xlink:href="#linearGradient3450"
       id="linearGradient3446"
       x1="30.042889"
       y1="48.905281"
       x2="30.042889"
       y2="54.127518"
       gradientUnits="userSpaceOnUse" />
    <linearGradient
       id="linearGradient3420">
      <stop
         style="stop-color:#000000;stop-opacity:1;"
         offset="0"
         id="stop3422" />
      <stop
         style="stop-color:#000000;stop-opacity:0;"
         offset="1"
         id="stop3424" />
    </linearGradient>
    <linearGradient
       inkscape:collect="always"
       xlink:href="#linearGradient3420"
       id="linearGradient3426"
       x1="-14.26983"
       y1="48.936237"
       x2="-14.26983"
       y2="54.072319"
       gradientUnits="userSpaceOnUse"
       gradientTransform="translate(46.03125,0)" />
  </defs>
  <sodipodi:namedview
     id="base"
     pagecolor="#ffffff"
     bordercolor="#666666"
     borderopacity="1.0"
     inkscape:pageopacity="0.0"
     inkscape:pageshadow="2"
     inkscape:zoom="5.5"
     inkscape:cx="32"
     inkscape:cy="32"
     inkscape:current-layer="layer1"
     showgrid="true"
     inkscape:document-units="px"
     inkscape:grid-bbox="true"
     inkscape:window-width="640"
     inkscape:window-height="679"
     inkscape:window-x="0"
     inkscape:window-y="24" />
  <metadata
     id="metadata3461">
    <rdf:RDF>
      <cc:Work
         rdf:about="">
        <dc:format>image/svg+xml</dc:format>
        <dc:type
           rdf:resource="http://purl.org/dc/dcmitype/StillImage" />
      </cc:Work>
    </rdf:RDF>
  </metadata>
  <g
     id="layer1"
     inkscape:label="Layer 1"
     inkscape:groupmode="layer">
    <path
       sodipodi:type="inkscape:offset"
       inkscape:radius="0.86166883"
       inkscape:original="M 27.5625 21.28125 C 26.295031 21.262197 26 22.241668 26 22.5625 C 26 22.873091 26 28.19367 26 28.78125 C 24.817543 29.138089 24 29.724879 24 30.71875 L 24 41.15625 C 24 43.227163 27.494163 43.26741 30.5 43.21875 L 30.5 55.59375 L 33.5 55.59375 L 33.5 43.21875 C 36.353544 43.262568 40 43.286149 40 41.21875 L 40 30.53125 C 40 29.558137 39.160567 29.010065 38 28.6875 L 38 22.5625 C 38 22.502594 37.837053 21.300411 36.5625 21.28125 C 35.295031 21.262197 35 22.241668 35 22.5625 C 35 22.848119 35 27.058651 35 28.28125 C 34.037742 28.237845 33.087256 28.25 32.28125 28.25 C 31.304231 28.25 30.145693 28.240251 29 28.3125 L 29 22.5625 C 29 22.502594 28.837053 21.300411 27.5625 21.28125 z "
       style="opacity:0.20000000000000001;fill:url(#linearGradient3446);fill-opacity:1;fill-rule:nonzero;stroke:none;stroke-width:1;stroke-linecap:butt;stroke-linejoin:round;marker:none;marker-start:none;marker-mid:none;marker-end:none;stroke-miterlimit:10;stroke-dasharray:none;stroke-dashoffset:0;stroke-opacity:0.40419946000000001;visibility:visible;display:block;overflow:visible"
       id="path3441"
       d="M 27.5625,20.40625 C 26.705877,20.393373 26.006141,20.786129 25.625,21.25 C 25.243859,21.713871 25.125,22.137959 25.125,22.5625 C 25.125,22.848119 25.125,27.09894 25.125,28.28125 C 24.722444,28.451223 24.290743,28.58652 23.96875,28.875 C 23.473656,29.318564 23.125,29.985549 23.125,30.71875 L 23.125,41.15625 C 23.125,41.916288 23.524437,42.608557 24.0625,43.03125 C 24.600563,43.453943 25.23875,43.665485 25.9375,43.8125 C 27.066825,44.050107 28.369654,44.039126 29.625,44.03125 L 29.625,55.59375 C 29.621388,55.826903 29.712415,56.051567 29.877299,56.216451 C 30.042183,56.381335 30.266847,56.472362 30.5,56.46875 L 33.5,56.46875 C 33.733153,56.472362 33.957817,56.381335 34.122701,56.216451 C 34.287585,56.051567 34.378612,55.826903 34.375,55.59375 L 34.375,44.03125 C 35.583433,44.041613 36.863522,44.065124 38,43.84375 C 38.70555,43.706317 39.353867,43.50518 39.90625,43.09375 C 40.458633,42.68232 40.875,41.9889 40.875,41.21875 L 40.875,30.53125 C 40.875,29.796927 40.502291,29.141859 40,28.71875 C 39.681662,28.450595 39.261837,28.310383 38.875,28.15625 L 38.875,22.5625 C 38.875,22.359697 38.855808,22.410845 38.84375,22.34375 C 38.831692,22.276655 38.807863,22.18558 38.78125,22.09375 C 38.728023,21.91009 38.62636,21.682066 38.46875,21.4375 C 38.153529,20.948368 37.470047,20.419894 36.5625,20.40625 C 35.705877,20.393373 35.006141,20.786129 34.625,21.25 C 34.243859,21.713871 34.125,22.137959 34.125,22.5625 C 34.125,22.804418 34.125,25.733347 34.125,27.40625 C 33.481063,27.3965 32.815866,27.375 32.28125,27.375 C 31.582361,27.375 30.714046,27.381455 29.875,27.40625 L 29.875,22.5625 C 29.875,22.359697 29.855808,22.410845 29.84375,22.34375 C 29.831692,22.276655 29.807863,22.18558 29.78125,22.09375 C 29.728023,21.91009 29.62636,21.682066 29.46875,21.4375 C 29.153529,20.948368 28.470047,20.419894 27.5625,20.40625 z" />
    <path
       style="fill:url(#linearGradient3426);fill-opacity:1;fill-rule:nonzero;stroke:none;stroke-width:1;stroke-linecap:butt;stroke-linejoin:round;marker:none;marker-start:none;marker-mid:none;marker-end:none;stroke-miterlimit:10;stroke-dasharray:none;stroke-dashoffset:0;stroke-opacity:0.40419948000000000;visibility:visible;display:block;overflow:visible;opacity:0.80000000000000004"
       d="M 27.5625,21.28125 C 26.295031,21.262197 26,22.241668 26,22.5625 C 26,22.873091 26,28.19367 26,28.78125 C 24.817543,29.138089 24,29.724879 24,30.71875 L 24,41.15625 C 24,43.227163 27.494163,43.26741 30.5,43.21875 L 30.5,55.59375 L 33.5,55.59375 L 33.5,43.21875 C 36.353544,43.262568 40,43.286149 40,41.21875 L 40,30.53125 C 40,29.558137 39.160567,29.010065 38,28.6875 L 38,22.5625 C 38,22.502594 37.837053,21.300411 36.5625,21.28125 C 35.295031,21.262197 35,22.241668 35,22.5625 C 35,22.848119 35,27.058651 35,28.28125 C 34.037742,28.237845 33.087256,28.25 32.28125,28.25 C 31.304231,28.25 30.145693,28.240251 29,28.3125 L 29,22.5625 C 29,22.502594 28.837053,21.300411 27.5625,21.28125 z"
       id="path2605" />
  </g>
</svg>
