<?xml version="1.0" encoding="UTF-8" standalone="no"?>
<!-- Created with Inkscape (http://www.inkscape.org/) -->

<svg
   xmlns:svg="http://www.w3.org/2000/svg"
   xmlns="http://www.w3.org/2000/svg"
   version="1.1"
   width="16"
   height="16"
   id="svg3781">
  <defs
     id="defs3783" />
  <g
     id="layer1">
    <path
       d="m 8.4552175,10.383176 c -0.03304,-1.0886578 0.231188,-2.1455148 1.3454335,-2.8941265 1.176933,-0.846631 2.31041,-1.905882 2.190626,-3.1545 -0.02616,-1.204179 -1.546122,-2.147784 -3.1837756,-2.283459 -1.8420929,-0.235562 -4.0710125,0.346955 -4.6882857,1.674897 -0.3130666,0.645865 -0.022747,1.804622 1.0278984,1.804622 0.6145253,0 0.8967799,-0.36643 0.9431505,-0.701629 0.03508,-0.253621 -0.07772,-0.480103 -0.1443333,-0.689597 -0.075907,-0.238704 0.2481266,-0.701339 0.6010425,-0.889832 0.2948999,-0.157512 0.6034413,-0.210328 0.6489226,-0.220417 1.0590717,-0.234945 2.1148142,0.284014 2.5552886,0.915653 0.440475,0.631636 -0.04436,1.589707 -0.7414276,2.521393 -0.6970732,0.931687 -1.4451557,1.9898927 -1.4421677,3.1138797 0,0.4279028 -0.041307,0.5732708 -0.012,0.7463908 0.023453,0.138315 0.5196131,0.121599 0.8995852,0.05672 z M 7.9718909,11.848453 C 6.9592512,11.797703 6.2583619,12.857374 6.8667072,13.532527 7.409987,14.277962 8.9332187,14.093944 9.1943,13.249815 9.4657306,12.593396 8.8125294,11.837496 7.9718909,11.848451 l 0,2e-6 z"
       id="path3298-6"
       style="font-size:72px;font-style:normal;font-weight:bold;fill:#000000;fill-opacity:1;stroke:none;font-family:Standard Symbols L" />
  </g>
</svg>
